# Blender 4.4.0
# www.blender.org
mtllib RectButton.mtl
o RectButton-Housing
v -0.250000 -0.154915 0.100000
v -0.300000 -0.077458 0.100000
v -0.250000 -0.127458 0.130000
v -0.250000 0.154915 0.100000
v -0.250000 0.117458 0.130000
v -0.300000 0.077458 0.100000
v -0.300000 -0.077458 0.000000
v -0.250000 -0.154915 0.000000
v -0.250000 0.154915 0.000000
v -0.300000 0.077458 0.000000
v 0.250000 -0.154915 0.100000
v 0.300000 -0.077458 0.100000
v 0.250000 -0.127458 0.130000
v 0.250000 0.154915 0.100000
v 0.250000 0.117458 0.130000
v 0.300000 0.077458 0.100000
v 0.300000 -0.077458 0.000000
v 0.250000 -0.154915 0.000000
v 0.250000 0.154915 0.000000
v 0.300000 0.077458 0.000000
vn -0.5145 -0.0000 0.8575
vn -0.6957 0.4491 0.5607
vn -0.8402 -0.5423 -0.0000
vn 1.0000 -0.0000 -0.0000
vn -0.7526 -0.4858 0.4446
vn -0.0000 0.6251 0.7805
vn 0.7526 -0.4858 0.4446
vn 0.6957 0.4491 0.5607
vn -0.8402 0.5423 -0.0000
vn -1.0000 -0.0000 -0.0000
vn 0.8402 -0.5423 -0.0000
vn 0.8402 0.5423 -0.0000
vn 0.5145 -0.0000 0.8575
vn -0.0000 -0.7377 0.6752
vn -0.0000 -1.0000 -0.0000
vn -0.0000 -0.0000 1.0000
vn -0.0000 1.0000 -0.0000
vt 0.581250 0.771875
vt 0.562500 0.706250
vt 0.437500 0.706250
vt 0.418750 0.771875
vt 0.625000 0.781250
vt 0.562500 0.750000
vt 0.343750 0.706250
vt 0.437500 0.500000
vt 0.343750 0.500000
vt 0.562500 0.500000
vt 0.375000 0.781250
vt 0.437500 0.750000
vt 0.656250 0.500000
vt 0.656250 0.706250
s 0
usemtl Button
f 5/1/1 6/2/1 2/3/1 3/4/1
f 4/5/2 6/6/2 5/1/2
f 1/7/3 2/3/3 7/8/3 8/9/3
f 17/8/4 20/10/4 16/2/4 12/3/4
f 1/11/5 3/4/5 2/12/5
f 14/5/6 4/5/6 5/1/6 15/1/6
f 11/11/7 12/12/7 13/4/7
f 14/5/8 15/1/8 16/6/8
f 9/13/9 10/10/9 6/2/9 4/14/9
f 7/8/10 2/3/10 6/2/10 10/10/10
f 11/7/11 18/9/11 17/8/11 12/3/11
f 19/13/12 14/14/12 16/2/12 20/10/12
f 15/1/13 13/4/13 12/3/13 16/2/13
f 13/4/14 3/4/14 1/11/14 11/11/14
f 18/9/15 11/7/15 1/7/15 8/9/15
f 13/4/16 15/1/16 5/1/16 3/4/16
f 19/13/17 9/13/17 4/14/17 14/14/17
o RectButton-Button
v -0.181080 -0.095427 0.176832
v -0.181080 0.095427 0.176832
v 0.181080 -0.095427 0.176832
v 0.181080 0.095427 0.176832
v 0.181080 0.095427 0.000000
v 0.181080 -0.095427 0.000000
v -0.181080 0.095427 0.000000
v -0.181080 -0.095427 0.000000
vn -0.0000 -0.0000 -1.0000
vn -0.0000 -1.0000 -0.0000
vn -1.0000 -0.0000 -0.0000
vn -0.0000 1.0000 -0.0000
vn 1.0000 -0.0000 -0.0000
vt 0.418750 0.771875
vt 0.581250 0.771875
s 0
usemtl Button
f 23/15/18 21/15/18 22/16/18 24/16/18
f 24/16/19 22/16/19 27/16/19 25/16/19
f 23/15/20 24/16/20 25/16/20 26/15/20
f 21/15/21 23/15/21 26/15/21 28/15/21
f 22/16/22 21/15/22 28/15/22 27/16/22
