# Blender 4.4.0
# www.blender.org
mtllib BevelCubeObject_low.mtl
o BevelCubeObject_low
v -0.950000 -1.000000 0.950000
v -0.950000 -0.950000 1.000000
v -1.000000 -0.950000 0.950000
v -0.950000 0.950000 1.000000
v -0.950000 1.000000 0.950000
v -1.000000 0.950000 0.950000
v -1.000000 -0.950000 -0.950000
v -0.950000 -0.950000 -1.000000
v -0.950000 -1.000000 -0.950000
v -0.950000 1.000000 -0.950000
v -0.950000 0.950000 -1.000000
v -1.000000 0.950000 -0.950000
v 1.000000 -0.950000 0.950000
v 0.950000 -0.950000 1.000000
v 0.950000 -1.000000 0.950000
v 0.950000 1.000000 0.950000
v 0.950000 0.950000 1.000000
v 1.000000 0.950000 0.950000
v 0.950000 -0.950000 -1.000000
v 1.000000 -0.950000 -0.950000
v 0.950000 -1.000000 -0.950000
v 0.950000 1.000000 -0.950000
v 1.000000 0.950000 -0.950000
v 0.950000 0.950000 -1.000000
v -1.050000 -0.646447 0.646447
v -1.000000 -0.696447 0.696447
v -1.000000 0.696447 0.696447
v -1.050000 0.646447 0.646447
v -1.000000 0.696447 -0.696447
v -1.050000 0.646447 -0.646447
v -1.050000 -0.646447 -0.646447
v -1.000000 -0.696447 -0.696447
v -0.646447 -0.646447 -1.050000
v -0.696447 -0.696447 -1.000000
v -0.696447 0.696447 -1.000000
v -0.646447 0.646447 -1.050000
v 0.696447 0.696447 -1.000000
v 0.646447 0.646447 -1.050000
v 0.646447 -0.646447 -1.050000
v 0.696447 -0.696447 -1.000000
v 1.050000 -0.646447 -0.646447
v 1.000000 -0.696447 -0.696447
v 1.000000 0.696447 -0.696447
v 1.050000 0.646447 -0.646447
v 1.000000 0.696447 0.696447
v 1.050000 0.646447 0.646447
v 1.050000 -0.646447 0.646447
v 1.000000 -0.696447 0.696447
v 0.646447 -0.646447 1.050000
v 0.696447 -0.696447 1.000000
v 0.696447 0.696447 1.000000
v 0.646447 0.646447 1.050000
v -0.696447 0.696447 1.000000
v -0.646447 0.646447 1.050000
v -0.646447 -0.646447 1.050000
v -0.696447 -0.696447 1.000000
v -0.646447 -1.050000 -0.646447
v -0.696447 -1.000000 -0.696447
v 0.696447 -1.000000 -0.696447
v 0.646447 -1.050000 -0.646447
v 0.696447 -1.000000 0.696447
v 0.646447 -1.050000 0.646447
v -0.646447 -1.050000 0.646447
v -0.696447 -1.000000 0.696447
v 0.646447 1.050000 -0.646447
v 0.696447 1.000000 -0.696447
v -0.696447 1.000000 -0.696447
v -0.646447 1.050000 -0.646447
v -0.696447 1.000000 0.696447
v -0.646447 1.050000 0.646447
v 0.646447 1.050000 0.646447
v 0.696447 1.000000 0.696447
v -1.250000 -0.596447 0.596447
v -1.200000 -0.646447 0.646447
v -1.200000 0.646447 0.646447
v -1.250000 0.596447 0.596447
v -1.250000 -0.596447 -0.596447
v -1.200000 -0.646447 -0.646447
v -1.200000 0.646447 -0.646447
v -1.250000 0.596447 -0.596447
v -0.646447 0.646447 -1.200000
v -0.596447 0.596447 -1.250000
v -0.596447 -0.596447 -1.250000
v -0.646447 -0.646447 -1.200000
v 0.596447 -0.596447 -1.250000
v 0.646447 -0.646447 -1.200000
v 0.646447 0.646447 -1.200000
v 0.596447 0.596447 -1.250000
v 1.200000 0.646447 -0.646447
v 1.250000 0.596447 -0.596447
v 1.250000 -0.596447 -0.596447
v 1.200000 -0.646447 -0.646447
v 1.250000 -0.596447 0.596447
v 1.200000 -0.646447 0.646447
v 1.200000 0.646447 0.646447
v 1.250000 0.596447 0.596447
v 0.646447 0.646447 1.200000
v 0.596447 0.596447 1.250000
v 0.596447 -0.596447 1.250000
v 0.646447 -0.646447 1.200000
v -0.596447 -0.596447 1.250000
v -0.646447 -0.646447 1.200000
v -0.646447 0.646447 1.200000
v -0.596447 0.596447 1.250000
v 0.646447 -1.200000 -0.646447
v 0.596447 -1.250000 -0.596447
v -0.596447 -1.250000 -0.596447
v -0.646447 -1.200000 -0.646447
v -0.596447 -1.250000 0.596447
v -0.646447 -1.200000 0.646447
v 0.646447 -1.200000 0.646447
v 0.596447 -1.250000 0.596447
v -0.646447 1.200000 -0.646447
v -0.596447 1.250000 -0.596447
v 0.596447 1.250000 -0.596447
v 0.646447 1.200000 -0.646447
v 0.596447 1.250000 0.596447
v 0.646447 1.200000 0.646447
v -0.646447 1.200000 0.646447
v -0.596447 1.250000 0.596447
v 0.975000 -0.950000 0.975000
v 0.975000 0.950000 0.975000
v 0.975000 -0.950000 -0.975000
v 0.975000 0.950000 -0.975000
v -0.975000 -0.950000 -0.975000
v -0.975000 0.950000 -0.975000
v -0.975000 -0.950000 0.975000
v -0.975000 0.950000 0.975000
vn 0.5789 0.5789 -0.5743
vn -0.6507 0.6507 -0.3914
vn -0.5789 0.5789 -0.5743
vn 0.5743 -0.5789 -0.5789
vn 0.3914 -0.6507 0.6507
vn 0.5743 -0.5789 0.5789
vn -0.5743 0.5789 -0.5789
vn -0.3914 0.6507 0.6507
vn -0.5743 0.5789 0.5789
vn -0.5789 -0.5789 -0.5743
vn 0.6507 -0.6507 -0.3914
vn 0.5789 -0.5789 -0.5743
vn -0.5743 -0.5789 0.5789
vn -0.3914 -0.6507 -0.6507
vn -0.5743 -0.5789 -0.5789
vn -0.9054 0.3002 0.3002
vn -0.9054 -0.3002 -0.3002
vn -0.9054 -0.3002 0.3002
vn 0.3416 -0.3416 0.8756
vn -0.1101 -0.1101 0.9878
vn -0.3416 -0.3416 0.8756
vn 0.3416 0.8756 0.3416
vn -0.1101 0.9878 0.1101
vn -0.3416 0.8756 0.3416
vn -0.3416 -0.3416 -0.8756
vn 0.1101 -0.1101 -0.9878
vn 0.3416 -0.3416 -0.8756
vn -0.1101 0.1101 0.9878
vn -0.3416 0.3416 0.8756
vn 0.3416 -0.8756 -0.3416
vn -0.1101 -0.9878 -0.1101
vn -0.3416 -0.8756 -0.3416
vn 0.3416 -0.8756 0.3416
vn 0.1101 -0.9878 -0.1101
vn -0.3914 -0.6507 0.6507
vn -0.3416 0.8756 -0.3416
vn 0.1101 0.9878 -0.1101
vn 0.3416 0.8756 -0.3416
vn 0.1101 0.1101 -0.9878
vn 0.3416 0.3416 -0.8756
vn 0.8756 0.3416 -0.3416
vn 0.9878 -0.1101 -0.1101
vn 0.8756 -0.3416 -0.3416
vn 0.1101 0.9878 0.1101
vn 0.3416 0.3416 0.8756
vn 0.1101 -0.1101 0.9878
vn 0.8756 -0.3416 0.3416
vn 0.9878 0.1101 0.1101
vn 0.8756 0.3416 0.3416
vn -0.3416 0.3416 -0.8756
vn -0.1101 -0.1101 -0.9878
vn -0.3416 -0.8756 0.3416
vn 0.1101 -0.9878 0.1101
vn -0.8756 -0.3416 0.3416
vn -0.9878 -0.1101 -0.1101
vn -0.8756 -0.3416 -0.3416
vn -0.9878 0.1101 -0.1101
vn -0.8756 0.3416 -0.3416
vn 0.9878 -0.1101 0.1101
vn -0.1101 0.9878 -0.1101
vn -0.8756 0.3416 0.3416
vn -0.9878 -0.1101 0.1101
vn -0.1101 0.1101 -0.9878
vn -0.9878 0.1101 0.1101
vn 0.1101 0.1101 0.9878
vn 0.9878 0.1101 -0.1101
vn -0.3002 0.3002 -0.9054
vn 0.3002 -0.3002 -0.9054
vn -0.3002 -0.3002 -0.9054
vn 0.9054 0.3002 -0.3002
vn 0.9054 -0.3002 0.3002
vn 0.9054 -0.3002 -0.3002
vn 0.3002 0.3002 0.9054
vn -0.3002 -0.3002 0.9054
vn 0.3002 -0.3002 0.9054
vn 0.3002 -0.9054 -0.3002
vn -0.3002 -0.9054 0.3002
vn -0.3002 -0.9054 -0.3002
vn -0.3002 0.9054 -0.3002
vn 0.3002 0.9054 0.3002
vn 0.3002 0.9054 -0.3002
vn 0.5789 -0.5789 0.5743
vn -0.6507 -0.6507 0.3914
vn -0.5789 -0.5789 0.5743
vn -0.3914 0.6507 -0.6507
vn 0.5743 0.5789 0.5789
vn 0.3914 0.6507 -0.6507
vn 0.5743 0.5789 -0.5789
vn -0.5789 -0.5743 -0.5789
vn -0.6507 -0.3914 0.6507
vn -0.5789 -0.5743 0.5789
vn 0.6507 0.6507 -0.3914
vn -0.5789 0.5789 0.5743
vn 0.6507 0.6507 0.3914
vn 0.5789 0.5789 0.5743
vn 0.5789 0.5743 -0.5789
vn 0.6507 0.3914 0.6507
vn 0.5789 0.5743 0.5789
vn -0.6507 -0.6507 -0.3914
vn 0.3914 0.6507 0.6507
vn 0.5789 -0.5743 0.5789
vn 0.6507 -0.3914 -0.6507
vn 0.5789 -0.5743 -0.5789
vn 0.3914 -0.6507 -0.6507
vn -0.6507 0.6507 0.3914
vn -0.5789 0.5743 0.5789
vn -0.6507 0.3914 -0.6507
vn -0.5789 0.5743 -0.5789
vn 0.6507 -0.6507 0.3914
vn 0.6507 -0.3914 0.6507
vn -0.6507 -0.3914 -0.6507
vn -0.6507 0.3914 0.6507
vn 0.6507 0.3914 -0.6507
vn -0.6739 -0.3029 0.6739
vn -0.6739 0.3029 0.6739
vn -0.6739 -0.3029 -0.6739
vn -0.6739 0.3029 -0.6739
vn 0.6739 -0.3029 0.6739
vn 0.6739 0.3029 0.6739
vn 0.6739 -0.3029 -0.6739
vn 0.6739 0.3029 -0.6739
vn -0.1101 -0.9878 0.1101
vn -0.9054 0.3002 -0.3002
vn 0.3002 0.3002 -0.9054
vn 0.9054 0.3002 0.3002
vn -0.3002 0.3002 0.9054
vn 0.3002 -0.9054 0.3002
vn -0.3002 0.9054 0.3002
vt 0.284695 0.726372
vt 0.490111 0.702540
vt 0.490111 0.726372
vt 0.490108 0.863310
vt 0.284691 0.887142
vt 0.284691 0.863310
vt 0.647047 0.316945
vt 0.852463 0.293113
vt 0.852463 0.316945
vt 0.269262 0.886888
vt 0.063846 0.910721
vt 0.063846 0.886888
vt 0.489006 0.809719
vt 0.283590 0.833551
vt 0.283590 0.809719
vt 0.565975 0.252767
vt 0.376447 0.063239
vt 0.565975 0.063239
vt 0.310520 0.015265
vt 0.050285 0.056676
vt 0.009149 0.015082
vt 0.305663 0.667732
vt 0.044074 0.708017
vt 0.003789 0.667732
vt 0.938312 0.345371
vt 0.678077 0.386782
vt 0.636941 0.345189
vt 0.050546 0.274409
vt 0.008969 0.315564
vt 0.624579 0.335473
vt 0.362990 0.375757
vt 0.322705 0.335473
vt 0.624579 0.637347
vt 0.584294 0.375757
vt 0.858261 0.958794
vt 0.834429 0.753378
vt 0.858261 0.753378
vt 0.298059 0.684433
vt 0.559648 0.644148
vt 0.599933 0.684433
vt 0.678338 0.604515
vt 0.636760 0.645670
vt 0.629837 0.315740
vt 0.588440 0.056413
vt 0.630018 0.015258
vt 0.878446 0.305671
vt 0.838161 0.044082
vt 0.878446 0.003797
vt 0.310339 0.315746
vt 0.268943 0.056420
vt 0.328647 0.015076
vt 0.370043 0.274402
vt 0.328466 0.315557
vt 0.938131 0.645853
vt 0.896734 0.386526
vt 0.322705 0.637347
vt 0.584294 0.597062
vt 0.310522 0.347515
vt 0.050288 0.388925
vt 0.009152 0.347332
vt 0.050548 0.606658
vt 0.008971 0.647813
vt 0.369783 0.056669
vt 0.884881 0.003794
vt 0.925165 0.265384
vt 0.884880 0.305668
vt 0.310342 0.647996
vt 0.268945 0.388670
vt 0.896995 0.604259
vt 0.269205 0.606403
vt 0.269203 0.274153
vt 0.588701 0.274146
vt 0.831727 0.192748
vt 0.642199 0.003219
vt 0.831727 0.003220
vt 0.558945 0.572163
vt 0.369417 0.382634
vt 0.558945 0.382634
vt 0.874278 0.582880
vt 0.684750 0.393352
vt 0.874278 0.393352
vt 0.246484 0.395488
vt 0.056956 0.585016
vt 0.056956 0.395488
vt 0.056949 0.252767
vt 0.246477 0.063239
vt 0.246477 0.252767
vt 0.703412 0.702545
vt 0.497995 0.726377
vt 0.497995 0.702545
vt 0.728969 0.744813
vt 0.752801 0.950229
vt 0.728969 0.950229
vt 0.064401 0.749951
vt 0.269817 0.726119
vt 0.269817 0.749951
vt 0.064401 0.857132
vt 0.269817 0.833300
vt 0.269817 0.857132
vt 0.781701 0.753379
vt 0.805533 0.958795
vt 0.781701 0.958795
vt 0.496537 0.889284
vt 0.701953 0.865452
vt 0.701953 0.889284
vt 0.269255 0.779709
vt 0.063839 0.803541
vt 0.063839 0.779709
vt 0.976552 0.905214
vt 0.952720 0.699798
vt 0.976552 0.699798
vt 0.942827 0.011703
vt 0.966660 0.217120
vt 0.942827 0.217120
vt 0.284694 0.779963
vt 0.490110 0.756130
vt 0.490110 0.779963
vt 0.985555 0.429335
vt 0.961722 0.223919
vt 0.985555 0.223919
vt 0.014453 0.712655
vt 0.038285 0.918071
vt 0.014453 0.918071
vt 0.931050 0.702539
vt 0.725634 0.726372
vt 0.725634 0.702539
vt 0.923812 0.950230
vt 0.899980 0.744813
vt 0.923812 0.744813
vt 0.225000 0.968598
vt 0.430416 0.944765
vt 0.430416 0.968598
vt 0.496879 0.833552
vt 0.702295 0.809720
vt 0.702295 0.833552
vt 0.217120 0.944765
vt 0.011704 0.968597
vt 0.011704 0.944765
vt 0.703407 0.756130
vt 0.497990 0.779962
vt 0.497990 0.756130
vt 0.006800 0.003425
vt 0.003216 0.013994
vt 0.312691 0.659654
vt 0.316275 0.649085
vt 0.944064 0.344224
vt 0.940513 0.333326
vt 0.940480 0.657511
vt 0.944065 0.646941
vt 0.316273 0.014117
vt 0.312721 0.003220
vt 0.312689 0.327404
vt 0.316273 0.316835
vt 0.635770 0.014111
vt 0.632219 0.003213
vt 0.632186 0.327398
vt 0.635770 0.316828
vt 0.312723 0.335470
vt 0.006802 0.335674
vt 0.316275 0.346367
vt 0.006770 0.659859
vt 0.003218 0.346244
vt 0.003218 0.648961
vt 0.634592 0.333531
vt 0.634559 0.657715
vt 0.631008 0.344100
vt 0.631008 0.646818
vt 0.326298 0.003418
vt 0.326265 0.327602
vt 0.322713 0.013987
vt 0.322714 0.316705
vt 0.006768 0.327609
vt 0.869496 0.966738
vt 0.869496 0.745434
vt 0.496951 0.798484
vt 0.275646 0.798484
vt 0.639103 0.328179
vt 0.860407 0.328179
vt 0.717734 0.736869
vt 0.717734 0.958173
vt 0.987787 0.913158
vt 0.277206 0.875654
vt 0.055902 0.875654
vt 0.276751 0.737607
vt 0.498055 0.737607
vt 0.770466 0.745435
vt 0.770466 0.966739
vt 0.996789 0.437279
vt 0.498052 0.852075
vt 0.276747 0.852075
vt 0.056457 0.761185
vt 0.277761 0.761185
vt 0.931593 0.003759
vt 0.931593 0.225064
vt 0.935046 0.958174
vt 0.711356 0.691310
vt 0.490051 0.691311
vt 0.488592 0.900519
vt 0.709897 0.900519
vt 0.003218 0.704711
vt 0.488934 0.844787
vt 0.056457 0.868367
vt 0.276750 0.791197
vt 0.217056 0.979832
vt 0.711351 0.744896
vt 0.277199 0.768474
vt 0.938994 0.691305
vt 0.225064 0.933531
vt 0.834429 0.958794
vt 0.823195 0.761322
vt 0.489006 0.833551
vt 0.291534 0.844786
vt 0.647047 0.293113
vt 0.844519 0.281878
vt 0.752801 0.744813
vt 0.764035 0.942285
vt 0.941486 0.707742
vt 0.952720 0.905214
vt 0.941486 0.897270
vt 0.269262 0.910721
vt 0.071790 0.921955
vt 0.284695 0.702540
vt 0.482167 0.691306
vt 0.805533 0.753379
vt 0.816767 0.950851
vt 0.950488 0.231863
vt 0.961722 0.429335
vt 0.950488 0.421391
vt 0.490108 0.887142
vt 0.292636 0.898377
vt 0.064401 0.726119
vt 0.261873 0.714884
vt 0.966660 0.011703
vt 0.977894 0.209175
vt 0.888745 0.752757
vt 0.899980 0.950230
vt 0.888745 0.942285
vt 0.703412 0.726377
vt 0.505939 0.737612
vt 0.496537 0.865452
vt 0.694009 0.854218
vt 0.049520 0.910127
vt 0.038285 0.712655
vt 0.049520 0.720599
vt 0.694351 0.798486
vt 0.496879 0.809720
vt 0.504822 0.798486
vt 0.261873 0.822065
vt 0.064401 0.833300
vt 0.072345 0.822065
vt 0.482166 0.744896
vt 0.284694 0.756130
vt 0.292638 0.744896
vt 0.422472 0.933531
vt 0.225000 0.944765
vt 0.232944 0.933531
vt 0.505934 0.791197
vt 0.703407 0.779962
vt 0.695463 0.791197
vt 0.071783 0.814775
vt 0.269255 0.803541
vt 0.261311 0.814775
vt 0.733578 0.737606
vt 0.931050 0.726372
vt 0.923106 0.737606
vt 0.019648 0.979832
vt 0.217120 0.968597
vt 0.209176 0.979832
vt 0.362990 0.597062
vt 0.003216 0.316712
vt 0.376447 0.252767
vt 0.265378 0.708017
vt 0.338344 0.644148
vt 0.838161 0.265386
vt 0.925165 0.044079
vt 0.642199 0.192748
vt 0.369417 0.572163
vt 0.684750 0.582880
vt 0.246484 0.585016
vt 0.056949 0.063239
vt 0.987787 0.691853
vt 0.996789 0.215975
vt 0.935046 0.736869
vt 0.003218 0.926015
vt 0.710239 0.844787
vt 0.277762 0.868367
vt 0.498054 0.791197
vt 0.438360 0.979832
vt 0.490046 0.744896
vt 0.055895 0.768474
vt 0.717690 0.691305
vt 0.003760 0.933531
vt 0.823195 0.950850
vt 0.481062 0.844786
vt 0.654991 0.281878
vt 0.764035 0.752757
vt 0.261318 0.921955
vt 0.292639 0.691306
vt 0.816767 0.761323
vt 0.482164 0.898377
vt 0.072345 0.714884
vt 0.977894 0.019647
vt 0.695467 0.737612
vt 0.504480 0.854218
s 1
usemtl BevelCubeObject
f 38/1/1 81/2/2 36/3/3
f 41/4/4 94/5/5 47/6/6
f 30/7/7 75/8/8 28/9/9
f 33/10/10 86/11/11 39/12/12
f 25/13/13 78/14/14 31/15/15
f 76/16/16 77/17/17 73/18/18
f 14/19/19 56/20/20 2/21/21
f 16/22/22 69/23/23 5/24/24
f 8/25/25 40/26/26 19/27/27
f 2/21/21 53/28/28 4/29/29
f 21/30/30 58/31/31 9/32/32
f 15/33/33 59/34/34 21/30/30
f 28/35/9 74/36/35 25/37/13
f 10/38/36 66/39/37 22/40/38
f 19/27/27 37/41/39 24/42/40
f 23/43/41 42/44/42 20/45/43
f 22/46/38 72/47/44 16/48/22
f 17/49/45 50/50/46 14/19/19
f 13/51/47 45/52/48 18/53/49
f 11/54/50 34/55/51 8/25/25
f 1/56/52 61/57/53 15/33/33
f 3/58/54 32/59/55 7/60/56
f 7/60/56 29/61/57 12/62/58
f 20/45/43 48/63/59 13/51/47
f 5/64/24 67/65/60 10/66/36
f 6/67/61 26/68/62 3/58/54
f 24/42/40 35/69/63 11/54/50
f 12/62/58 27/70/64 6/67/61
f 4/29/29 51/71/65 17/49/45
f 18/53/49 43/72/66 23/43/41
f 82/73/67 85/74/68 83/75/69
f 90/76/70 93/77/71 91/78/72
f 98/79/73 101/80/74 99/81/75
f 106/82/76 109/83/77 107/84/78
f 114/85/79 117/86/80 115/87/81
f 49/88/82 102/89/83 55/90/84
f 31/91/15 79/92/85 30/93/7
f 46/94/86 89/95/87 44/96/88
f 57/97/89 110/98/90 63/99/91
f 39/100/12 87/101/92 38/102/1
f 54/103/93 97/104/94 52/105/95
f 65/106/96 118/107/97 71/108/98
f 36/109/3 84/110/99 33/111/10
f 47/112/6 95/113/100 46/114/86
f 62/115/101 105/116/102 60/117/103
f 44/118/88 92/119/104 41/120/4
f 55/121/84 103/122/105 54/123/93
f 70/124/106 113/125/107 68/126/108
f 52/127/95 100/128/109 49/129/82
f 63/130/91 111/131/110 62/132/101
f 60/133/103 108/134/111 57/135/89
f 71/136/98 119/137/112 70/138/106
f 68/139/108 116/140/113 65/141/96
f 1/142/52 2/21/21 127/143/114
f 5/144/24 6/67/61 128/145/115
f 125/146/116 8/25/25 9/147/32
f 10/148/36 11/54/50 126/149/117
f 121/150/118 14/19/19 15/151/33
f 16/152/22 17/49/45 122/153/119
f 123/154/120 20/45/43 21/155/30
f 22/156/38 23/43/41 124/157/121
f 1/158/52 7/60/56 9/159/32
f 128/145/115 3/58/54 127/160/114
f 10/161/36 6/67/61 5/144/24
f 125/162/116 12/62/58 126/163/117
f 9/147/32 19/27/27 21/164/30
f 22/165/38 11/54/50 10/148/36
f 123/166/120 24/42/40 124/167/121
f 21/155/30 13/51/47 15/168/33
f 16/169/22 23/43/41 22/156/38
f 121/170/118 18/53/49 122/171/119
f 15/151/33 2/21/21 1/142/52
f 5/172/24 17/49/45 16/152/22
f 27/173/64 25/37/13 26/174/62
f 26/175/62 31/15/15 32/176/55
f 29/177/57 28/9/9 27/178/64
f 32/179/55 30/93/7 29/180/57
f 33/111/10 35/181/63 36/109/3
f 34/182/51 39/12/12 40/183/26
f 37/184/39 36/3/3 35/185/63
f 40/186/26 38/102/1 37/187/39
f 41/120/4 43/188/66 44/118/88
f 42/189/42 47/6/6 48/190/59
f 45/191/48 44/96/88 43/192/66
f 48/193/59 46/114/86 45/194/48
f 49/129/82 51/195/65 52/127/95
f 50/196/46 55/90/84 56/197/20
f 53/198/28 52/105/95 51/199/65
f 54/123/93 56/200/20 55/121/84
f 57/135/89 59/201/34 60/133/103
f 63/99/91 58/202/31 57/97/89
f 60/117/103 61/203/53 62/115/101
f 62/132/101 64/204/122 63/130/91
f 65/141/96 67/205/60 68/139/108
f 71/108/98 66/206/37 65/106/96
f 68/126/108 69/207/23 70/124/106
f 70/138/106 72/208/44 71/136/98
f 75/209/8 73/210/18 74/36/35
f 74/211/35 77/212/17 78/14/14
f 79/213/85 76/214/16 75/8/8
f 78/215/14 80/216/123 79/92/85
f 83/217/69 81/218/2 82/219/67
f 84/220/99 85/221/68 86/11/11
f 87/222/92 82/223/67 81/2/2
f 86/224/11 88/225/124 87/101/92
f 91/226/72 89/227/87 90/228/70
f 92/229/104 93/230/71 94/5/5
f 95/231/100 90/232/70 89/95/87
f 94/233/5 96/234/125 95/113/100
f 99/235/75 97/236/94 98/237/73
f 100/238/109 101/239/74 102/89/83
f 103/240/105 98/241/73 97/104/94
f 104/242/126 102/243/83 101/244/74
f 107/245/78 105/246/102 106/247/76
f 109/248/77 108/249/111 107/250/78
f 106/251/76 111/252/110 112/253/127
f 112/254/127 110/255/90 109/256/77
f 115/257/81 113/258/107 114/259/79
f 117/260/80 116/261/113 115/262/81
f 114/263/79 119/264/112 120/265/128
f 120/266/128 118/267/97 117/268/80
f 9/32/32 64/269/122 1/56/52
f 14/19/19 122/153/119 17/49/45
f 18/53/49 16/169/22 122/171/119
f 13/51/47 121/170/118 15/168/33
f 20/45/43 124/157/121 23/43/41
f 8/25/25 126/149/117 11/54/50
f 4/29/29 127/143/114 2/21/21
f 4/29/29 5/172/24 128/270/115
f 12/62/58 10/161/36 126/163/117
f 24/42/40 22/165/38 124/167/121
f 19/27/27 123/166/120 21/164/30
f 7/60/56 125/162/116 9/159/32
f 3/58/54 1/158/52 127/160/114
f 38/1/1 87/222/92 81/2/2
f 41/4/4 92/229/104 94/5/5
f 30/7/7 79/213/85 75/8/8
f 33/10/10 84/220/99 86/11/11
f 25/13/13 74/211/35 78/14/14
f 76/16/16 80/271/123 77/17/17
f 14/19/19 50/50/46 56/20/20
f 16/22/22 72/272/44 69/23/23
f 8/25/25 34/55/51 40/26/26
f 2/21/21 56/20/20 53/28/28
f 21/30/30 59/34/34 58/31/31
f 15/33/33 61/57/53 59/34/34
f 28/35/9 75/209/8 74/36/35
f 10/38/36 67/273/60 66/39/37
f 19/27/27 40/26/26 37/41/39
f 23/43/41 43/72/66 42/44/42
f 22/46/38 66/274/37 72/47/44
f 17/49/45 51/71/65 50/50/46
f 13/51/47 48/63/59 45/52/48
f 11/54/50 35/69/63 34/55/51
f 1/56/52 64/269/122 61/57/53
f 3/58/54 26/68/62 32/59/55
f 7/60/56 32/59/55 29/61/57
f 20/45/43 42/44/42 48/63/59
f 5/64/24 69/275/23 67/65/60
f 6/67/61 27/70/64 26/68/62
f 24/42/40 37/41/39 35/69/63
f 12/62/58 29/61/57 27/70/64
f 4/29/29 53/28/28 51/71/65
f 18/53/49 45/52/48 43/72/66
f 82/73/67 88/276/124 85/74/68
f 90/76/70 96/277/125 93/77/71
f 98/79/73 104/278/126 101/80/74
f 106/82/76 112/279/127 109/83/77
f 114/85/79 120/280/128 117/86/80
f 49/88/82 100/238/109 102/89/83
f 31/91/15 78/215/14 79/92/85
f 46/94/86 95/231/100 89/95/87
f 57/97/89 108/249/111 110/98/90
f 39/100/12 86/224/11 87/101/92
f 54/103/93 103/240/105 97/104/94
f 65/106/96 116/261/113 118/107/97
f 36/109/3 81/218/2 84/110/99
f 47/112/6 94/233/5 95/113/100
f 62/115/101 111/252/110 105/116/102
f 44/118/88 89/227/87 92/119/104
f 55/121/84 102/243/83 103/122/105
f 70/124/106 119/264/112 113/125/107
f 52/127/95 97/236/94 100/128/109
f 63/130/91 110/255/90 111/131/110
f 60/133/103 105/246/102 108/134/111
f 71/136/98 118/267/97 119/137/112
f 68/139/108 113/258/107 116/140/113
f 1/158/52 3/58/54 7/60/56
f 128/145/115 6/67/61 3/58/54
f 10/161/36 12/62/58 6/67/61
f 125/162/116 7/60/56 12/62/58
f 9/147/32 8/25/25 19/27/27
f 22/165/38 24/42/40 11/54/50
f 123/166/120 19/27/27 24/42/40
f 21/155/30 20/45/43 13/51/47
f 16/169/22 18/53/49 23/43/41
f 121/170/118 13/51/47 18/53/49
f 15/151/33 14/19/19 2/21/21
f 5/172/24 4/29/29 17/49/45
f 27/173/64 28/35/9 25/37/13
f 26/175/62 25/13/13 31/15/15
f 29/177/57 30/7/7 28/9/9
f 32/179/55 31/91/15 30/93/7
f 33/111/10 34/281/51 35/181/63
f 34/182/51 33/10/10 39/12/12
f 37/184/39 38/1/1 36/3/3
f 40/186/26 39/100/12 38/102/1
f 41/120/4 42/282/42 43/188/66
f 42/189/42 41/4/4 47/6/6
f 45/191/48 46/94/86 44/96/88
f 48/193/59 47/112/6 46/114/86
f 49/129/82 50/283/46 51/195/65
f 50/196/46 49/88/82 55/90/84
f 53/198/28 54/103/93 52/105/95
f 54/123/93 53/284/28 56/200/20
f 57/135/89 58/285/31 59/201/34
f 63/99/91 64/286/122 58/202/31
f 60/117/103 59/287/34 61/203/53
f 62/132/101 61/288/53 64/204/122
f 65/141/96 66/289/37 67/205/60
f 71/108/98 72/290/44 66/206/37
f 68/126/108 67/291/60 69/207/23
f 70/138/106 69/292/23 72/208/44
f 75/209/8 76/293/16 73/210/18
f 74/211/35 73/294/18 77/212/17
f 79/213/85 80/295/123 76/214/16
f 78/215/14 77/296/17 80/216/123
f 83/217/69 84/110/99 81/218/2
f 84/220/99 83/297/69 85/221/68
f 87/222/92 88/298/124 82/223/67
f 86/224/11 85/299/68 88/225/124
f 91/226/72 92/119/104 89/227/87
f 92/229/104 91/300/72 93/230/71
f 95/231/100 96/301/125 90/232/70
f 94/233/5 93/302/71 96/234/125
f 99/235/75 100/128/109 97/236/94
f 100/238/109 99/303/75 101/239/74
f 103/240/105 104/304/126 98/241/73
f 104/242/126 103/122/105 102/243/83
f 107/245/78 108/134/111 105/246/102
f 109/248/77 110/98/90 108/249/111
f 106/251/76 105/116/102 111/252/110
f 112/254/127 111/131/110 110/255/90
f 115/257/81 116/140/113 113/258/107
f 117/260/80 118/107/97 116/261/113
f 114/263/79 113/125/107 119/264/112
f 120/266/128 119/137/112 118/267/97
f 9/32/32 58/31/31 64/269/122
f 14/19/19 121/150/118 122/153/119
f 20/45/43 123/154/120 124/157/121
f 8/25/25 125/146/116 126/149/117
f 4/29/29 128/270/115 127/143/114
